<mxfile host="app.diagrams.net" modified="2023-05-04T12:15:25.294Z" agent="Mozilla/5.0 (Windows NT 10.0; Win64; x64) AppleWebKit/537.36 (KHTML, like Gecko) Chrome/113.0.0.0 Safari/537.36" etag="tBAqAYpoHcFLLowul6Kz" version="21.2.7" type="github">
  <diagram name="Page-1" id="w1h_QVy5O38ZsuPJZhTp">
    <mxGraphModel dx="1434" dy="796" grid="1" gridSize="10" guides="1" tooltips="1" connect="1" arrows="1" fold="1" page="1" pageScale="1" pageWidth="850" pageHeight="1100" math="0" shadow="0">
      <root>
        <mxCell id="0" />
        <mxCell id="1" parent="0" />
        <mxCell id="gHl1mEk744bZl8xdF2fX-4" value="" style="edgeStyle=orthogonalEdgeStyle;rounded=0;orthogonalLoop=1;jettySize=auto;html=1;" edge="1" parent="1" source="gHl1mEk744bZl8xdF2fX-1" target="gHl1mEk744bZl8xdF2fX-3">
          <mxGeometry relative="1" as="geometry" />
        </mxCell>
        <mxCell id="gHl1mEk744bZl8xdF2fX-1" value="Start" style="rounded=0;whiteSpace=wrap;html=1;" vertex="1" parent="1">
          <mxGeometry x="80" y="60" width="120" height="60" as="geometry" />
        </mxCell>
        <mxCell id="gHl1mEk744bZl8xdF2fX-6" value="" style="edgeStyle=orthogonalEdgeStyle;rounded=0;orthogonalLoop=1;jettySize=auto;html=1;" edge="1" parent="1" source="gHl1mEk744bZl8xdF2fX-3" target="gHl1mEk744bZl8xdF2fX-5">
          <mxGeometry relative="1" as="geometry" />
        </mxCell>
        <mxCell id="gHl1mEk744bZl8xdF2fX-3" value="Choose photo&amp;nbsp; and crop to 3:4 ratio" style="rounded=0;whiteSpace=wrap;html=1;" vertex="1" parent="1">
          <mxGeometry x="80" y="200" width="120" height="60" as="geometry" />
        </mxCell>
        <mxCell id="gHl1mEk744bZl8xdF2fX-8" value="" style="edgeStyle=orthogonalEdgeStyle;rounded=0;orthogonalLoop=1;jettySize=auto;html=1;" edge="1" parent="1" source="gHl1mEk744bZl8xdF2fX-5" target="gHl1mEk744bZl8xdF2fX-7">
          <mxGeometry relative="1" as="geometry" />
        </mxCell>
        <mxCell id="gHl1mEk744bZl8xdF2fX-5" value="Find ID with data_collector.IdGenerator" style="rounded=0;whiteSpace=wrap;html=1;" vertex="1" parent="1">
          <mxGeometry x="60" y="350" width="160" height="60" as="geometry" />
        </mxCell>
        <mxCell id="gHl1mEk744bZl8xdF2fX-7" value="Rename photo to ID&amp;nbsp;&lt;br&gt;&lt;br&gt;and start processing" style="whiteSpace=wrap;html=1;rounded=0;" vertex="1" parent="1">
          <mxGeometry x="80" y="490" width="120" height="60" as="geometry" />
        </mxCell>
      </root>
    </mxGraphModel>
  </diagram>
</mxfile>
